<svg width="230" height="43" fill="none" xmlns="http://www.w3.org/2000/svg">
  <path d="M53 30.585v-1.141c.573-.035.981-.156 1.224-.364.26-.207.426-.518.495-.933.07-.415.104-.943.104-1.583V15.773c0-.38.009-.744.026-1.09.018-.363.035-.674.052-.933-.295.017-.616.034-.963.052-.348.017-.66.034-.938.051v-1.426c1.06-.018 2.127-.026 3.203-.026 1.077-.018 2.162-.018 3.256 0 1.632 0 2.978.19 4.037.57 1.06.364 1.85.908 2.37 1.635.538.726.799 1.643.781 2.75a4.93 4.93 0 0 1-.416 2.075c-.295.674-.79 1.28-1.485 1.815-.694.537-1.65.943-2.865 1.22.347.207.66.492.938.856.278.363.564.77.86 1.219l1.588 2.438c.33.52.634.96.912 1.323s.59.649.937.856c.347.19.764.286 1.25.286v1.141h-3.62a7.735 7.735 0 0 1-1.172-1.22 73.84 73.84 0 0 1-1.016-1.504l-1.797-2.905-.729-1.116a4.82 4.82 0 0 0-.807-1.011h-1.641v4.28c0 .467-.009.89-.026 1.271 0 .363-.017.657-.052.882.208-.017.425-.026.65-.026.244-.017.478-.035.704-.052.243-.017.452-.026.625-.026v1.427H53Zm6.094-9.027c.955-.018 1.771-.165 2.449-.441.677-.294 1.198-.735 1.562-1.323.365-.605.547-1.384.547-2.335 0-.709-.104-1.305-.312-1.79a2.871 2.871 0 0 0-.886-1.167 3.292 3.292 0 0 0-1.38-.649 6.58 6.58 0 0 0-1.693-.207c-.556 0-.964.104-1.224.311-.243.208-.4.51-.469.908-.07.398-.104.908-.104 1.53v5.085c.26.017.503.043.73.078.242.017.503.017.78 0ZM75.624 31c-1.215 0-2.309-.277-3.281-.83-.955-.57-1.71-1.366-2.266-2.387-.556-1.037-.834-2.256-.834-3.657 0-1.21.27-2.344.808-3.398a6.683 6.683 0 0 1 2.318-2.543c.99-.657 2.135-.985 3.438-.985.729 0 1.415.112 2.057.337.66.225 1.242.58 1.745 1.064.521.466.93 1.08 1.224 1.841.296.744.443 1.652.443 2.724l-8.96.156c0 1.176.13 2.222.391 3.138.278.917.72 1.626 1.329 2.127.607.502 1.397.753 2.37.753.468 0 .963-.078 1.484-.234a6.08 6.08 0 0 0 1.51-.726 4.73 4.73 0 0 0 1.225-1.115l.807.7c-.52.778-1.12 1.392-1.797 1.842a6.884 6.884 0 0 1-2.083.908c-.695.19-1.337.285-1.928.285Zm-3.203-9.027h6.016c0-.657-.095-1.245-.286-1.764-.174-.536-.452-.96-.834-1.271-.382-.311-.868-.467-1.458-.467-.92 0-1.676.294-2.266.882-.59.57-.981 1.444-1.172 2.62ZM91.122 30.585c-.035-.277-.06-.519-.078-.726a9.353 9.353 0 0 0-.078-.649 6.612 6.612 0 0 1-1.901 1.349 5.244 5.244 0 0 1-2.11.441c-1.25 0-2.197-.303-2.839-.908-.625-.622-.938-1.392-.938-2.309 0-.795.235-1.487.704-2.075.468-.588 1.085-1.063 1.849-1.426a9.651 9.651 0 0 1 2.5-.83 12.86 12.86 0 0 1 2.657-.286v-1.53c0-.554-.053-1.064-.157-1.53-.104-.485-.32-.874-.65-1.168-.313-.311-.808-.467-1.485-.467a3.147 3.147 0 0 0-1.355.26 2.005 2.005 0 0 0-1.041.881.911.911 0 0 1 .26.493c.052.173.078.337.078.493 0 .242-.104.519-.312.83-.209.294-.565.432-1.068.415-.417 0-.738-.138-.964-.415a1.705 1.705 0 0 1-.312-1.012c0-.622.225-1.176.677-1.66.469-.484 1.102-.864 1.901-1.141.799-.277 1.693-.415 2.683-.415 1.493 0 2.604.389 3.333 1.167.747.778 1.12 2.006 1.12 3.684v1.79c0 .57-.008 1.14-.026 1.711v1.816c0 .26-.008.554-.026.882-.017.329-.043.675-.078 1.038l.912-.052c.312-.017.607-.026.885-.026v1.375h-4.141Zm-.234-6.226c-.556.035-1.129.113-1.72.234a6.169 6.169 0 0 0-1.562.544c-.469.243-.85.554-1.146.934-.278.38-.417.84-.417 1.375.035.588.226 1.02.573 1.297.365.277.79.415 1.276.415.608 0 1.146-.112 1.615-.337.469-.242.93-.57 1.38-.986a6.264 6.264 0 0 1-.025-.57V25.76c.017-.432.026-.9.026-1.4ZM103.221 31c-1.163 0-2.231-.26-3.203-.778a6.17 6.17 0 0 1-2.344-2.283c-.573-.986-.86-2.179-.86-3.58a7.3 7.3 0 0 1 .495-2.672 7.57 7.57 0 0 1 1.38-2.308 6.604 6.604 0 0 1 2.136-1.583c.834-.397 1.754-.596 2.761-.596 1.024 0 1.901.155 2.63.467.73.311 1.285.717 1.667 1.219.4.501.599 1.046.599 1.634 0 .415-.121.778-.364 1.09-.243.31-.591.466-1.042.466-.504.018-.86-.13-1.068-.44-.208-.329-.313-.632-.313-.908 0-.156.027-.329.079-.52.052-.207.147-.388.286-.544a1.492 1.492 0 0 0-.677-.804 2.923 2.923 0 0 0-.964-.337 5.51 5.51 0 0 0-.833-.078c-1.059.017-1.954.475-2.683 1.375-.712.882-1.068 2.161-1.068 3.839 0 1.072.157 2.032.469 2.88.33.847.808 1.521 1.433 2.023.625.501 1.371.76 2.24.778a4.67 4.67 0 0 0 2.265-.597 5.511 5.511 0 0 0 1.771-1.556l.834.726c-.504.778-1.085 1.392-1.745 1.842-.643.45-1.302.77-1.98.96a6.85 6.85 0 0 1-1.901.285ZM115.577 31c-.434 0-.868-.06-1.302-.182a2.906 2.906 0 0 1-1.224-.648c-.365-.346-.651-.839-.86-1.479-.208-.64-.312-1.487-.312-2.542l.052-7.082h-1.927v-1.452c.468-.017.946-.19 1.432-.519a4.66 4.66 0 0 0 1.276-1.323c.365-.553.617-1.15.756-1.79h1.224v3.632h4.011v1.349l-4.011.052-.052 6.926c0 .657.052 1.236.156 1.738.121.484.312.864.573 1.141.278.26.651.39 1.12.39.399 0 .807-.122 1.224-.364.434-.242.842-.64 1.224-1.193l.886.778c-.417.605-.834 1.08-1.251 1.427-.416.345-.816.596-1.198.752a3.502 3.502 0 0 1-1.041.311 4.85 4.85 0 0 1-.756.078ZM133.943 30.818l-4.635-13.878c-.261-.778-.469-1.41-.626-1.893-.138-.485-.234-.9-.286-1.245-.278.017-.538.026-.781.026s-.487.008-.73.025v-1.426h6.772v1.141c-.886.035-1.45.225-1.693.57-.226.347-.208 1.004.052 1.972.295 1.09.599 2.101.912 3.035.312.934.625 1.92.937 2.957.209.71.417 1.375.625 1.998.226.605.452 1.314.678 2.127h.026c.086-.277.182-.605.286-.986.122-.38.243-.77.365-1.167.121-.415.234-.787.338-1.116l.235-.778 1.224-3.865c.417-1.262.79-2.404 1.12-3.424.33-1.02.581-1.85.755-2.49h1.354c.174.64.4 1.392.678 2.257.295.847.59 1.729.885 2.646l.86 2.62c.277.83.512 1.556.703 2.178.225.71.451 1.427.677 2.154.243.709.46 1.444.651 2.204h.052l.495-1.634c.191-.588.373-1.184.547-1.79.347-1.003.634-1.867.859-2.594a51.08 51.08 0 0 0 .599-1.893c.157-.537.296-1.02.417-1.453.139-.432.278-.856.417-1.271.104-.329.226-.675.364-1.038.139-.38.313-.717.521-1.011l-1.067.052c-.365 0-.695.008-.99.025v-1.426h5.469v1.141c-.521.052-.955.173-1.302.363-.33.19-.625.528-.886 1.012-.26.467-.555 1.167-.885 2.101l-2.266 6.926a344.707 344.707 0 0 1-2.266 6.848h-1.302l-3.646-10.61a31.58 31.58 0 0 1-.521-1.53 87.893 87.893 0 0 0-.417-1.504c-.121.484-.252.968-.391 1.453-.139.466-.286.942-.442 1.426l-3.464 10.765h-1.277ZM160.253 30.585a18.798 18.798 0 0 1-.079-.726 8.996 8.996 0 0 0-.078-.649 6.608 6.608 0 0 1-1.901 1.349 5.243 5.243 0 0 1-2.11.441c-1.25 0-2.196-.303-2.838-.908-.626-.622-.938-1.392-.938-2.309 0-.795.234-1.487.703-2.075.469-.588 1.085-1.063 1.849-1.426a9.654 9.654 0 0 1 2.501-.83 12.85 12.85 0 0 1 2.656-.286v-1.53a7.04 7.04 0 0 0-.156-1.53c-.104-.485-.321-.874-.651-1.168-.313-.311-.808-.467-1.485-.467a3.146 3.146 0 0 0-1.354.26 2.002 2.002 0 0 0-1.042.881.914.914 0 0 1 .261.493c.052.173.078.337.078.493 0 .242-.105.519-.313.83-.208.294-.564.432-1.068.415-.416 0-.738-.138-.963-.415a1.702 1.702 0 0 1-.313-1.012c0-.622.226-1.176.677-1.66.469-.484 1.103-.864 1.902-1.141.798-.277 1.692-.415 2.682-.415 1.493 0 2.605.389 3.334 1.167.746.778 1.12 2.006 1.12 3.684v1.79c0 .57-.009 1.14-.026 1.711v1.816c0 .26-.009.554-.026.882a26.98 26.98 0 0 1-.078 1.038l.911-.052c.313-.017.608-.026.886-.026v1.375h-4.141Zm-.235-6.226a12.43 12.43 0 0 0-1.719.234 6.174 6.174 0 0 0-1.563.544 3.4 3.4 0 0 0-1.145.934c-.278.38-.417.84-.417 1.375.035.588.226 1.02.573 1.297.364.277.79.415 1.276.415.608 0 1.146-.112 1.615-.337.469-.242.929-.57 1.38-.986a6.411 6.411 0 0 1-.026-.57V25.76c.017-.432.026-.9.026-1.4ZM170.897 31c-.434 0-.868-.06-1.302-.182a2.906 2.906 0 0 1-1.224-.648c-.365-.346-.652-.839-.86-1.479-.208-.64-.312-1.487-.312-2.542l.052-7.082h-1.928v-1.452c.469-.017.947-.19 1.433-.519.486-.329.911-.77 1.276-1.323.365-.553.616-1.15.755-1.79h1.224v3.632h4.011v1.349l-4.011.052-.052 6.926c0 .657.052 1.236.157 1.738.121.484.312.864.573 1.141.277.26.651.39 1.119.39.4 0 .808-.122 1.225-.364.434-.242.842-.64 1.224-1.193l.885.778c-.417.605-.833 1.08-1.25 1.427-.417.345-.816.596-1.198.752a3.499 3.499 0 0 1-1.042.311 4.828 4.828 0 0 1-.755.078ZM182.525 31c-1.163 0-2.231-.26-3.203-.778a6.172 6.172 0 0 1-2.344-2.283c-.573-.986-.86-2.179-.86-3.58 0-.934.165-1.824.495-2.672a7.56 7.56 0 0 1 1.381-2.308 6.595 6.595 0 0 1 2.135-1.583c.834-.397 1.754-.596 2.761-.596 1.025 0 1.901.155 2.631.467.729.311 1.285.717 1.667 1.219.399.501.599 1.046.599 1.634 0 .415-.122.778-.365 1.09-.243.31-.59.466-1.042.466-.503.018-.859-.13-1.068-.44-.208-.329-.312-.632-.312-.908 0-.156.026-.329.078-.52.052-.207.147-.388.286-.544a1.488 1.488 0 0 0-.677-.804 2.918 2.918 0 0 0-.963-.337 5.522 5.522 0 0 0-.834-.078c-1.059.017-1.953.475-2.682 1.375-.712.882-1.068 2.161-1.068 3.839 0 1.072.156 2.032.468 2.88.33.847.808 1.521 1.433 2.023.625.501 1.372.76 2.24.778.781 0 1.536-.2 2.266-.597a5.532 5.532 0 0 0 1.771-1.556l.833.726c-.503.778-1.085 1.392-1.745 1.842-.642.45-1.302.77-1.979.96-.66.19-1.294.285-1.902.285ZM198.135 29.495c.521 0 .886-.12 1.094-.363.226-.242.356-.579.391-1.011.052-.433.078-.934.078-1.505l-.026-3.632c0-1.366-.217-2.386-.651-3.06-.417-.692-1.094-1.03-2.032-1.012a4.278 4.278 0 0 0-1.693.415c-.538.26-.989.588-1.354.986v7.055a18.591 18.591 0 0 1-.104 1.92c.278-.017.556-.026.833-.026.295-.017.565-.035.808-.052v1.375h-5.808v-1.09c.521 0 .885-.12 1.094-.363.208-.242.338-.579.39-1.011.052-.433.078-.934.078-1.505V14.01c.018-.311.044-.64.079-.986a156.5 156.5 0 0 1-.938.052c-.33 0-.634.009-.912.026v-1.375c.782 0 1.407-.034 1.876-.103.468-.087.824-.182 1.067-.286.261-.104.452-.216.573-.337h.964v7.834a7.746 7.746 0 0 1 2.709-1.4 4.777 4.777 0 0 1 1.406-.234c1.545 0 2.648.467 3.308 1.4.677.934 1.024 2.396 1.042 4.384v4.384c0 .312-.009.632-.026.96 0 .311-.026.631-.079.96.278-.017.565-.026.86-.026.295-.017.564-.035.807-.052v1.375h-5.834v-1.09ZM212.029 31c-1.216 0-2.31-.277-3.282-.83-.955-.57-1.71-1.366-2.266-2.387-.555-1.037-.833-2.256-.833-3.657 0-1.21.269-2.344.807-3.398a6.684 6.684 0 0 1 2.318-2.543c.99-.657 2.136-.985 3.438-.985a6.19 6.19 0 0 1 2.058.337c.659.225 1.241.58 1.745 1.064.52.466.929 1.08 1.224 1.841.295.744.442 1.652.442 2.724l-8.959.156c0 1.176.13 2.222.391 3.138.278.917.72 1.626 1.328 2.127.608.502 1.398.753 2.37.753.469 0 .964-.078 1.485-.234a6.085 6.085 0 0 0 1.51-.726 4.735 4.735 0 0 0 1.224-1.115l.808.7c-.521.778-1.12 1.392-1.797 1.842a6.895 6.895 0 0 1-2.084.908c-.694.19-1.337.285-1.927.285Zm-3.204-9.027h6.017c0-.657-.096-1.245-.287-1.764-.174-.536-.451-.96-.833-1.271-.382-.311-.869-.467-1.459-.467-.92 0-1.675.294-2.266.882-.59.57-.981 1.444-1.172 2.62ZM225.416 31a7.324 7.324 0 0 1-2.266-.337c-.694-.208-1.25-.459-1.667-.753l.079.857h-1.381l-.13-4.462h1.094c.035.64.234 1.219.599 1.738a3.82 3.82 0 0 0 1.406 1.219 4.21 4.21 0 0 0 1.902.441c.399 0 .79-.06 1.172-.182.382-.138.703-.337.963-.596a1.42 1.42 0 0 0 .391-1.012c0-.432-.139-.787-.417-1.064-.26-.293-.625-.553-1.094-.778-.451-.225-.972-.45-1.562-.674-.521-.208-1.051-.424-1.589-.649a8.503 8.503 0 0 1-1.459-.804 3.52 3.52 0 0 1-1.067-1.141c-.261-.467-.391-1.038-.391-1.712 0-.398.078-.822.234-1.271.156-.467.408-.89.756-1.271.347-.398.816-.718 1.406-.96.59-.26 1.32-.39 2.188-.39.469 0 .989.079 1.562.234a4.67 4.67 0 0 1 1.641.804l-.026-.908h1.381v4.566h-1.12a4.313 4.313 0 0 0-.495-1.686 3.303 3.303 0 0 0-1.12-1.271c-.486-.329-1.077-.493-1.771-.493-.677 0-1.233.173-1.667.519-.417.328-.625.743-.625 1.245 0 .501.156.908.469 1.219.33.311.755.58 1.276.804.521.225 1.085.45 1.693.675.729.294 1.415.613 2.057.96.643.345 1.164.778 1.563 1.296.399.52.599 1.176.599 1.972 0 .865-.226 1.59-.677 2.179-.434.57-.999.994-1.693 1.271a5.93 5.93 0 0 1-2.214.415Z" fill="#222" />
  <ellipse cx="20.5" cy="22" rx="10.5" ry="10" fill="#F199A4" />
  <path d="M23.103 20.842h-2.145V17.71a.658.658 0 1 0-1.316 0v3.79c0 .363.294.658.658.658h2.803a.658.658 0 1 0 0-1.316Z" fill="#444" />
  <path d="M35.43 18.71h-.98a14.115 14.115 0 0 0-2.115-5.076l-2.63-8.093a1.094 1.094 0 0 0-1.042-.758h-.17V1.536C28.493.689 27.804 0 26.957 0H13.803c-.846 0-1.535.689-1.535 1.536v3.247h-.17c-.476 0-.896.304-1.043.758l-2.63 8.093a14.095 14.095 0 0 0-2.39 7.866c0 2.957.912 5.707 2.472 7.986l2.548 7.845c.148.453.567.758 1.044.758h.169v3.375c0 .847.689 1.536 1.536 1.536h13.154c.847 0 1.536-.689 1.536-1.536V38.09h.169c.477 0 .896-.305 1.043-.758l2.55-7.848a14.118 14.118 0 0 0 2.194-5.193h.98c.846 0 1.535-.69 1.535-1.536v-2.508c0-.847-.689-1.536-1.536-1.536ZM13.583 1.536c0-.12.1-.22.22-.22h13.154c.119 0 .219.1.219.22v.877H13.584v-.877Zm-1.326 4.563h10.12a.658.658 0 1 0 0-1.316h-8.794V3.73h13.593v1.053h-2.255a.658.658 0 1 0 0 1.316h3.581l1.605 4.94a14.344 14.344 0 0 0-9.727-3.786c-3.751 0-7.17 1.438-9.728 3.786l1.605-4.94ZM7.35 21.5c0-1.355.212-2.661.603-3.89l1.973 1.14a10.65 10.65 0 0 0 0 5.5l-1.973 1.14a12.797 12.797 0 0 1-.603-3.89Zm19.826 17.77h-6.73a.658.658 0 1 0 0 1.317h6.73v.877c0 .12-.1.22-.22.22H13.803c-.118 0-.219-.1-.219-.22v-.877h4.142a.658.658 0 0 0 0-1.317h-4.142V38.09h13.593v1.181Zm1.326-2.497H12.258l-1.545-4.757a14.345 14.345 0 0 0 9.668 3.731c3.721 0 7.116-1.415 9.668-3.732l-1.546 4.758Zm-8.122-2.342c-5.346 0-9.95-3.212-11.956-7.794l1.93-1.114a10.83 10.83 0 0 0 10.026 6.718 10.84 10.84 0 0 0 3.433-.555.658.658 0 1 0-.416-1.249c-.79.263-1.61.419-2.443.468v-.552a.658.658 0 1 0-1.317 0v.543a9.498 9.498 0 0 1-5.548-2.342l.39-.386a.658.658 0 1 0-.928-.934l-.389.385a9.344 9.344 0 0 1-2.262-5.544h.562a.658.658 0 0 0 0-1.317h-.55a9.35 9.35 0 0 1 2.361-5.503l.397.393a.656.656 0 0 0 .93-.003.658.658 0 0 0-.003-.931l-.38-.378a9.497 9.497 0 0 1 5.588-2.242v.553a.658.658 0 0 0 1.316 0v-.543a9.497 9.497 0 0 1 5.549 2.342l-.39.386a.658.658 0 1 0 .928.934l.388-.385a9.345 9.345 0 0 1 2.263 5.544h-.562a.658.658 0 0 0 0 1.317h.55a9.34 9.34 0 0 1-2.36 5.505l-.398-.395a.658.658 0 1 0-.927.934l.381.379c-.318.269-.656.52-1.013.75a.658.658 0 0 0 .712 1.107c3.1-1.994 4.951-5.367 4.951-9.022 0-5.922-4.85-10.74-10.814-10.74a10.83 10.83 0 0 0-10.026 6.717l-1.93-1.114A13.05 13.05 0 0 1 20.38 8.569c7.185 0 13.03 5.801 13.03 12.931 0 7.13-5.845 12.93-13.03 12.93Zm15.268-11.677c0 .12-.1.22-.22.22h-.779a14.263 14.263 0 0 0 0-2.948h.78c.118 0 .219.101.219.22v2.508Z" fill="#444" />
</svg>