<svg width="218" height="43" fill="none" xmlns="http://www.w3.org/2000/svg">
  <g clip-path="url(#a)">
    <path d="M35.4 19.35h-1.53a13.58 13.58 0 0 1 0 4.26h1.53c.48 0 .87-.4.87-.88v-2.5c0-.49-.4-.88-.87-.88Z" fill="#E3DAB3" />
    <path d="M12.91 37.4v4.03c0 .48.4.87.88.87h13.14c.48 0 .88-.4.88-.87V37.4H12.9Z" fill="#EFBA50" />
    <path opacity=".1" d="M15.7 41.43V37.4H12.9v4.03c0 .48.4.87.88.87h2.78a.88.88 0 0 1-.88-.87Z" fill="#000" />
    <path d="M20.36 35.06c-4.67 0-8.8-2.33-11.26-5.88l2.57 7.91c.06.18.23.3.42.3h16.55c.19 0 .35-.12.41-.3l2.57-7.9a13.69 13.69 0 0 1-11.26 5.87Z" fill="#8AA5B6" />
    <path opacity=".1" d="m14.4 37.1-1.34-4.14a13.7 13.7 0 0 1-3.96-3.78l2.57 7.91c.06.18.23.3.42.3h2.73a.44.44 0 0 1-.42-.3Z" fill="#000" />
    <path d="M27.8 5.44v-3.9c0-.49-.39-.88-.87-.88H13.8c-.48 0-.88.4-.88.87v3.9h14.9Z" fill="#EFBA50" />
    <path opacity=".1" d="M15.7 5.44v-3.9c0-.49.39-.88.87-.88h-2.78c-.48 0-.88.4-.88.87v3.9h2.78Z" fill="#000" />
    <path d="M20.36 7.9c4.72 0 8.88 2.38 11.34 5.99l-2.65-8.15a.44.44 0 0 0-.41-.3H12.09a.44.44 0 0 0-.42.3l-2.65 8.15A13.69 13.69 0 0 1 20.36 7.9Z" fill="#8AA5B6" />
    <path d="M20.36 35.06c7.55 0 13.68-6.08 13.68-13.58S27.9 7.9 20.36 7.9A13.63 13.63 0 0 0 6.7 21.48c0 7.5 6.12 13.58 13.67 13.58Z" fill="#EFBA50" />
    <path opacity=".1" d="m13.05 10 1.39-4.26c.06-.18.22-.3.41-.3H12.1a.44.44 0 0 0-.42.3l-2.65 8.15a13.7 13.7 0 0 1 4.03-3.88Z" fill="#000" />
    <path opacity=".1" d="M9.47 21.48c0-7.03 5.38-12.81 12.28-13.5a13.63 13.63 0 0 0-15.07 13.5 13.63 13.63 0 0 0 15.07 13.5 13.61 13.61 0 0 1-12.28-13.5Z" fill="#000" />
    <path d="M20.36 31.55c-5.6 0-10.14-4.52-10.14-10.07 0-5.55 4.55-10.07 10.14-10.07 5.6 0 10.15 4.52 10.15 10.07 0 5.55-4.55 10.07-10.15 10.07Z" fill="#fff" />
    <path opacity=".1" d="M12.94 21.48c0-5.1 3.83-9.32 8.78-9.98a10.12 10.12 0 0 0-11.5 9.98 10.12 10.12 0 0 0 11.5 9.98 10.11 10.11 0 0 1-8.78-9.98Z" fill="#000" />
    <path d="M10.22 21.48c0-1.07.16-2.1.47-3.06l-3.1-1.8a13.45 13.45 0 0 0 0 9.71l3.1-1.8c-.3-.96-.47-1.98-.47-3.05Z" fill="#E3DAB3" />
    <path d="M23.08 20.82h-2.14V17.7a.66.66 0 0 0-1.32 0v3.79c0 .36.3.66.66.66h2.8a.66.66 0 1 0 0-1.32Z" fill="#000" />
    <path d="M35.4 18.7h-.98a14.1 14.1 0 0 0-2.12-5.08l-2.62-8.08a1.1 1.1 0 0 0-1.04-.76h-.17V1.53c0-.84-.7-1.53-1.54-1.53H13.8c-.85 0-1.53.69-1.53 1.53v3.25h-.17c-.48 0-.9.3-1.05.76l-2.62 8.08a14.08 14.08 0 0 0 .08 15.84l2.54 7.84c.15.45.57.75 1.05.75h.17v3.38c0 .84.68 1.53 1.53 1.53h13.14c.85 0 1.54-.69 1.54-1.53v-3.38h.17c.47 0 .9-.3 1.04-.75l2.55-7.84a14.1 14.1 0 0 0 2.19-5.2h.98c.84 0 1.53-.68 1.53-1.53v-2.5c0-.85-.69-1.54-1.53-1.54ZM13.57 1.52c0-.11.1-.21.22-.21h13.14c.12 0 .22.1.22.21v.88H13.57v-.88ZM12.25 6.1h10.1a.66.66 0 1 0 0-1.31h-8.78V3.73h13.58v1.05H24.9a.66.66 0 1 0 0 1.31h3.58l1.6 4.94a14.33 14.33 0 0 0-19.44 0l1.6-4.94Zm-4.9 15.39c0-1.35.2-2.66.6-3.89l1.97 1.14a10.64 10.64 0 0 0 0 5.5l-1.97 1.14c-.4-1.23-.6-2.54-.6-3.89Zm19.8 17.75h-6.72a.66.66 0 0 0 0 1.32h6.72v.88c0 .11-.1.21-.22.21H13.8a.22.22 0 0 1-.22-.21v-.88h4.14a.66.66 0 0 0 0-1.32h-4.14v-1.18h13.58v1.18Zm1.33-2.5H12.25L10.7 32a14.33 14.33 0 0 0 19.32 0l-1.54 4.75Zm-8.12-2.33c-5.34 0-9.94-3.21-11.94-7.79l1.92-1.11a10.82 10.82 0 0 0 13.45 6.16.66.66 0 0 0-.41-1.25c-.8.26-1.61.42-2.45.47v-.56a.66.66 0 1 0-1.31 0v.55a9.49 9.49 0 0 1-5.54-2.34l.39-.39a.66.66 0 1 0-.93-.93l-.39.38a9.34 9.34 0 0 1-2.26-5.54h.56a.66.66 0 0 0 0-1.31h-.55c.17-2.1 1.03-4.01 2.36-5.5l.4.4a.66.66 0 0 0 .93-.01.66.66 0 0 0 0-.93l-.39-.38a9.49 9.49 0 0 1 5.59-2.24v.56a.66.66 0 1 0 1.31 0v-.55a9.49 9.49 0 0 1 5.55 2.34l-.4.39a.66.66 0 0 0 .93.93l.4-.38a9.34 9.34 0 0 1 2.25 5.54h-.56a.66.66 0 0 0 0 1.31h.55a9.33 9.33 0 0 1-2.36 5.5l-.4-.4a.66.66 0 1 0-.92.94l.38.38c-.32.27-.66.52-1.01.75a.66.66 0 0 0 .7 1.1c3.1-1.99 4.95-5.36 4.95-9.01a10.82 10.82 0 0 0-20.82-4.02l-1.92-1.11a13.04 13.04 0 0 1 24.96 5.13c0 7.12-5.84 12.92-13.02 12.92Zm15.26-11.67c0 .12-.1.22-.22.22h-.78a14.27 14.27 0 0 0 0-2.94h.78c.11 0 .22.1.22.22v2.5Z" fill="#000" />
  </g>
  <path d="M56.95 12.27a30.86 30.86 0 0 1 4.78-.4c.83 0 1.6.09 2.34.27.75.17 1.4.47 1.96.88.57.41 1.03.95 1.37 1.61.34.67.5 1.47.5 2.42a5.2 5.2 0 0 1-1.2 3.57 5.84 5.84 0 0 1-3.06 1.83l1.29.99 4.67 7.44H67l-5.19-8.11-2.63-.4v8.5h-2.23v-18.6Zm4.84 1.53h-.73a9.46 9.46 0 0 0-1.4.08c-.2.02-.35.05-.48.08v6.93h2.1c1.23 0 2.25-.3 3.06-.91.8-.61 1.2-1.56 1.2-2.85 0-.97-.33-1.76-.99-2.39a3.86 3.86 0 0 0-2.76-.94ZM81.22 29.8c-.53.43-1.21.77-2.04 1.02-.8.25-1.66.38-2.58.38-1.02 0-1.9-.16-2.65-.48a4.9 4.9 0 0 1-1.86-1.43 6.3 6.3 0 0 1-1.07-2.23 11.1 11.1 0 0 1-.35-2.9c0-2.29.51-4.03 1.53-5.23 1.02-1.2 2.48-1.8 4.38-1.8.6 0 1.22.07 1.82.21.61.13 1.16.38 1.64.76.48.37.88.91 1.18 1.6.3.69.46 1.6.46 2.72 0 .59-.05 1.24-.16 1.96H72.9c0 .79.08 1.49.24 2.1A3.45 3.45 0 0 0 75.21 29c.55.21 1.22.32 2.01.32a5.45 5.45 0 0 0 3.2-1.07l.8 1.55ZM76.6 19.01c-1.05 0-1.9.28-2.55.83-.62.56-1 1.5-1.12 2.85h6.66c0-1.36-.26-2.31-.78-2.85a2.87 2.87 0 0 0-2.2-.83ZM84.84 18.45a7.74 7.74 0 0 1 2.37-.92c.9-.2 1.86-.3 2.84-.3.93 0 1.67.13 2.23.38.57.25 1 .59 1.29 1 .3.4.5.83.59 1.31.1.49.16.97.16 1.45 0 1.08-.03 2.12-.08 3.14a55.3 55.3 0 0 0-.08 2.9c0 .67.03 1.3.08 1.88.05.6.15 1.14.3 1.64h-1.59l-.56-1.88h-.14a4.57 4.57 0 0 1-1.47 1.4 6.02 6.02 0 0 1-2.72.64c-.57 0-1.1-.09-1.6-.27-.49-.18-.91-.43-1.27-.75a3.9 3.9 0 0 1-.86-1.2c-.2-.47-.3-1-.3-1.6a3.38 3.38 0 0 1 1.83-3.22 6.4 6.4 0 0 1 2.1-.66c.82-.15 1.72-.22 2.7-.22h.73c.25 0 .5.02.76.05.05-.53.08-1.02.08-1.44 0-.99-.2-1.68-.6-2.07-.39-.4-1.1-.6-2.14-.6-.3 0-.64.03-1 .09-.34.03-.7.1-1.07.19a6.99 6.99 0 0 0-1.9.67l-.68-1.61Zm3.82 10.76c.5 0 .94-.06 1.34-.19a3.22 3.22 0 0 0 1.72-1.2c.2-.25.34-.5.43-.73v-2.23c-.25-.02-.51-.02-.78-.02a10.55 10.55 0 0 0-2.4.08 4.7 4.7 0 0 0-1.39.35c-.4.16-.71.39-.97.7-.23.28-.34.65-.34 1.1 0 .62.22 1.14.67 1.55.44.4 1.02.6 1.72.6ZM107.53 30c-.53.38-1.17.68-1.9.88-.74.21-1.5.32-2.31.32a6.4 6.4 0 0 1-2.63-.48 4.77 4.77 0 0 1-1.78-1.43 6.5 6.5 0 0 1-.99-2.23c-.2-.87-.3-1.84-.3-2.9 0-2.27.5-4 1.5-5.2 1.01-1.22 2.45-1.83 4.33-1.83.86 0 1.59.07 2.18.21.6.13 1.15.32 1.64.57l-.62 1.85a5.46 5.46 0 0 0-1.37-.54 5.84 5.84 0 0 0-1.61-.21c-2.55 0-3.82 1.72-3.82 5.15 0 .68.07 1.34.2 1.96.14.61.36 1.16.66 1.64.33.47.74.84 1.24 1.13a3.9 3.9 0 0 0 1.9.43 4.86 4.86 0 0 0 2.98-.97l.7 1.64ZM108.72 17.45h2.1V14.8l2.14-.61v3.27h3.65v1.88h-3.65v7.44c0 .93.12 1.6.35 1.99.23.37.63.56 1.18.56a4.47 4.47 0 0 0 2.26-.54l.48 1.64a8.25 8.25 0 0 1-3.44.78c-1.09 0-1.86-.3-2.3-.91-.45-.63-.68-1.67-.68-3.12v-7.84h-2.1v-1.88ZM130.14 24.67l.43 3.12h.03l.46-3.17 3.86-12.54H136l3.89 12.6.46 3.1h.02l.49-3.16 3.16-12.54h2.18l-5.24 19.1h-1.23l-3.81-12.6-.49-2.85h-.13l-.49 2.88-3.8 12.56h-1.24l-5.37-19.09h2.36l3.38 12.6ZM147.17 18.45a7.75 7.75 0 0 1 2.36-.92c.91-.2 1.86-.3 2.85-.3.93 0 1.67.13 2.23.38.57.25 1 .59 1.28 1 .3.4.5.83.6 1.31.1.49.16.97.16 1.45 0 1.08-.03 2.12-.08 3.14a54.98 54.98 0 0 0-.08 2.9c0 .67.02 1.3.08 1.88.05.6.15 1.14.3 1.64h-1.6l-.56-1.88h-.13a4.55 4.55 0 0 1-1.48 1.4 6.03 6.03 0 0 1-2.71.64c-.57 0-1.1-.09-1.61-.27-.48-.18-.9-.43-1.26-.75a3.9 3.9 0 0 1-.86-1.2c-.2-.47-.3-1-.3-1.6a3.38 3.38 0 0 1 1.83-3.22 6.4 6.4 0 0 1 2.1-.66c.82-.15 1.72-.22 2.7-.22h.73c.25 0 .5.02.75.05.06-.53.08-1.02.08-1.44 0-.99-.2-1.68-.59-2.07-.4-.4-1.1-.6-2.15-.6-.3 0-.63.03-.99.09-.34.03-.7.1-1.07.19a6.98 6.98 0 0 0-1.91.67l-.67-1.61Zm3.81 10.76c.5 0 .95-.06 1.34-.19a3.23 3.23 0 0 0 1.72-1.2c.2-.25.34-.5.43-.73v-2.23c-.25-.02-.5-.02-.78-.02a10.55 10.55 0 0 0-2.39.08 4.7 4.7 0 0 0-1.4.35c-.39.16-.7.39-.96.7-.23.28-.35.65-.35 1.1 0 .62.22 1.14.67 1.55.45.4 1.02.6 1.72.6ZM158.93 17.45h2.1V14.8l2.14-.61v3.27h3.66v1.88h-3.66v7.44c0 .93.12 1.6.35 1.99.23.37.63.56 1.18.56a4.47 4.47 0 0 0 2.26-.54l.48 1.64a8.25 8.25 0 0 1-3.43.78c-1.1 0-1.87-.3-2.31-.91-.45-.63-.67-1.67-.67-3.12v-7.84h-2.1v-1.88ZM178.67 30c-.54.38-1.17.68-1.9.88-.74.21-1.51.32-2.32.32a6.4 6.4 0 0 1-2.63-.48 4.77 4.77 0 0 1-1.77-1.43 6.52 6.52 0 0 1-1-2.23c-.19-.87-.29-1.84-.29-2.9 0-2.27.5-4 1.5-5.2 1-1.22 2.45-1.83 4.33-1.83.86 0 1.58.07 2.17.21.61.13 1.16.32 1.64.57l-.62 1.85a5.46 5.46 0 0 0-1.37-.54 5.85 5.85 0 0 0-1.6-.21c-2.55 0-3.82 1.72-3.82 5.15a10 10 0 0 0 .19 1.96c.14.61.36 1.16.67 1.64.32.47.73.84 1.23 1.13a3.9 3.9 0 0 0 1.91.43 4.86 4.86 0 0 0 2.98-.97l.7 1.64ZM190.25 30.88v-7.65c0-.7-.05-1.31-.14-1.83a3.26 3.26 0 0 0-.43-1.32 2.03 2.03 0 0 0-.88-.8 3.2 3.2 0 0 0-1.43-.27c-.84 0-1.6.28-2.28.83a3.62 3.62 0 0 0-1.31 2.1v8.94h-2.15v-18.8h2.15v6.88h.1c.47-.56 1.02-1 1.67-1.32a5.3 5.3 0 0 1 2.44-.51c.75 0 1.4.09 1.96.27.56.16 1.01.46 1.37.88.38.43.64 1.02.8 1.75.18.72.27 1.63.27 2.74v8.1h-2.14ZM206.11 29.8c-.54.43-1.22.77-2.04 1.02-.8.25-1.66.38-2.58.38-1.02 0-1.9-.16-2.66-.48a4.9 4.9 0 0 1-1.85-1.43 6.27 6.27 0 0 1-1.07-2.23c-.23-.85-.35-1.82-.35-2.9 0-2.29.5-4.03 1.53-5.23 1.02-1.2 2.48-1.8 4.38-1.8.6 0 1.21.07 1.82.21.61.13 1.16.38 1.64.76.48.37.88.91 1.18 1.6.3.69.46 1.6.46 2.72 0 .59-.06 1.24-.16 1.96h-8.62c0 .79.08 1.49.24 2.1A3.45 3.45 0 0 0 200.1 29c.55.21 1.22.32 2.01.32a5.46 5.46 0 0 0 3.2-1.07l.8 1.55Zm-4.62-10.79c-1.05 0-1.9.28-2.55.83-.63.56-1 1.5-1.13 2.85h6.66c0-1.36-.26-2.31-.78-2.85a2.87 2.87 0 0 0-2.2-.83ZM215.85 27.23c0-.54-.16-.96-.48-1.27-.32-.3-.73-.55-1.2-.75-.47-.21-1-.41-1.57-.59a8.84 8.84 0 0 1-1.55-.72c-.47-.3-.86-.7-1.19-1.16a3.24 3.24 0 0 1-.48-1.88c0-1.29.37-2.23 1.1-2.82.74-.6 1.76-.91 3.06-.91a9.18 9.18 0 0 1 4.14.86l-.51 1.77c-.41-.2-.91-.37-1.5-.5a6.82 6.82 0 0 0-1.86-.25c-.79 0-1.37.13-1.74.4-.36.27-.54.74-.54 1.4 0 .46.16.83.48 1.1.33.25.72.48 1.18.7.49.2 1 .4 1.56.59.57.2 1.1.45 1.56.78.48.32.88.73 1.2 1.23.33.49.49 1.13.49 1.93 0 .58-.1 1.11-.3 1.62-.17.5-.46.93-.85 1.28-.4.36-.9.64-1.48.84-.57.21-1.25.32-2.04.32-1.02 0-1.89-.1-2.6-.3a8.2 8.2 0 0 1-1.8-.7l.64-1.82a7.91 7.91 0 0 0 3.62.94c.77 0 1.4-.15 1.91-.46.5-.3.75-.85.75-1.63Z" fill="#000" />
  <defs>
    <clipPath id="a">
      <path fill="#fff" d="M0 0h42.96v42.96H0z" />
    </clipPath>
  </defs>
</svg>