<svg width="24" height="24" viewBox="0 0 24 24" fill="none" xmlns="http://www.w3.org/2000/svg">
<path d="M2 4.5H22L24 24H0L2 4.5Z" fill="black"/>
<path d="M18 4.5C18 3.43913 17.3679 1.92172 16.2426 1.17157C15.1174 0.421427 13.5913 8.00932e-08 12 0C10.4087 -8.00931e-08 8.88258 0.421427 7.75736 1.17157C6.63214 1.92172 6 3.43913 6 4.5H7.5C7.5 3.72515 8.07937 2.48204 8.90122 1.93414C9.72307 1.38625 10.8377 1.07844 12 1.07844C13.1623 1.07844 14.2769 1.38625 15.0988 1.93414C15.9206 2.48204 16.5 3.72515 16.5 4.5H18Z" fill="black"/>
</svg>
