<svg width="24" height="24" xmlns="http://www.w3.org/2000/svg">
  <g clip-path="url(#a)" stroke="#000">
    <path d="m17.5 4.57.02.47h4.09l1.84 18.46H.55L2.32 5.04h4.16l.02-.47C6.62 2.42 8.96.5 12 .5s5.37 1.92 5.5 4.07Zm-.8.47h.54l-.04-.53C17.04 2.2 14.65.52 12 .52c-2.65 0-5.04 1.69-5.2 3.99l-.04.53H16.7Zm-13.6.03h-.46l-.04.45-1.68 17.4-.05.56H23.2l-.05-.55-1.68-17.41-.04-.45H17.5v3.37h-.29V5.07H6.79v3.37h-.3V5.07H3.1Z" fill="#000" />
    <path d="M12 10v8M8 14h8" />
  </g>
  <defs>
    <clipPath id="a">
      <path fill="#fff" d="M0 0h24v24H0z" />
    </clipPath>
  </defs>
</svg>