<svg width="16" height="16" viewBox="0 0 16 16" fill="none" xmlns="http://www.w3.org/2000/svg">
<path d="M9.66257 8.00541L13.3251 4.34466C13.7849 3.88484 13.7849 3.14287 13.3251 2.68304C12.8653 2.22322 12.1233 2.22322 11.6635 2.68304L8.00095 6.34379L4.33931 2.68215C3.87949 2.22232 3.13752 2.22232 2.67769 2.68215C2.21787 3.14197 2.21787 3.88394 2.67769 4.34377L6.34022 8.00451L2.67769 11.6653C2.21787 12.1251 2.21787 12.8671 2.67769 13.3269C3.13841 13.7867 3.88306 13.7867 4.33931 13.3269L8.00184 9.66613L11.6644 13.3269C12.1242 13.7867 12.8662 13.7867 13.326 13.3269C13.7822 12.8671 13.7822 12.1251 13.3215 11.6644L9.66257 8.00541Z" fill="black"/>
</svg>
