<svg width="24" height="24" viewBox="0 0 24 24" fill="none" xmlns="http://www.w3.org/2000/svg">
<g clip-path="url(#clip0_8_67)">
<path d="M19.5924 3.02463L19.5925 3.02467C22.5634 3.98713 24.19 7.18925 23.2188 10.1897C23.1144 10.5108 22.8855 10.9341 22.5346 11.4438C22.1875 11.9477 21.7383 12.5116 21.2161 13.1105C20.1718 14.308 18.8548 15.6236 17.5266 16.8473C16.1986 18.0708 14.8679 19.1947 13.7992 20.0099C13.2639 20.4183 12.8018 20.7434 12.443 20.9639C12.2629 21.0746 12.1178 21.1533 12.0082 21.2028C11.9509 21.2286 11.9144 21.2413 11.895 21.2474C11.8761 21.2413 11.8407 21.2289 11.7855 21.2036C11.6779 21.1545 11.5354 21.076 11.3584 20.9654C11.0056 20.745 10.5519 20.4199 10.0264 20.0113C8.97744 19.1957 7.67287 18.071 6.37094 16.847C5.0688 15.6227 3.77765 14.3068 2.75261 13.1097C1.71005 11.892 0.998067 10.8593 0.779379 10.1893C-0.187898 7.19651 1.43759 3.99387 4.4129 3.02455C7.35473 2.07093 10.5192 3.65922 11.5299 6.58592L12.0022 7.95373L12.4751 6.58609C13.4859 3.66219 16.6508 2.07094 19.5924 3.02463ZM19.7454 2.5529L19.7454 2.55289L19.7454 2.5529Z" stroke="black"/>
</g>
<defs>
<clipPath id="clip0_8_67">
<rect width="24" height="24" fill="white"/>
</clipPath>
</defs>
</svg>
