<svg width="24" height="22" viewBox="0 0 24 22" fill="none" xmlns="http://www.w3.org/2000/svg">
<path d="M9.05933 16.6807C8.96226 16.5189 8.91294 16.3329 8.91706 16.1443C8.92119 15.9557 8.9786 15.772 9.08266 15.6147L12.0127 11.184L8.01599 7.75799C7.83661 7.60427 7.71744 7.39199 7.67961 7.1588C7.64178 6.9256 7.68774 6.68654 7.80933 6.48399L10.6787 1.70266C9.53131 0.800977 8.11459 0.310349 6.65533 0.309326C3.02199 0.309326 0.0766602 3.25399 0.0766602 6.88799C0.0766602 7.40266 0.141993 7.90133 0.253993 8.38199C1.16733 14.058 7.47733 20.0453 12 21.6893C12.0167 21.6833 12.0347 21.6747 12.0513 21.668L9.05933 16.6807V16.6807Z" fill="#DD2E44"/>
<path d="M17.3454 0.310654C15.502 0.310654 13.8467 1.07799 12.654 2.29932L9.95935 6.79065L13.9854 10.2413C14.1703 10.4 14.2909 10.6208 14.3245 10.8621C14.3581 11.1035 14.3025 11.3488 14.168 11.552L11.0987 16.1933L13.8727 20.8167C18.098 18.464 22.9534 13.308 23.7454 8.38399C23.8587 7.90332 23.924 7.40465 23.924 6.88999C23.9234 3.25532 20.978 0.310654 17.3454 0.310654V0.310654Z" fill="#DD2E44"/>
</svg>
