<svg width="96" height="96" xmlns="http://www.w3.org/2000/svg">
  <path d="M69.069 60.315 49.967 46.957V24A1.973 1.973 0 0 0 48 22.033 1.973 1.973 0 0 0 46.033 24v24c0 .65.314 1.24.846 1.613l19.947 13.948c.335.236.728.354 1.122.354.61 0 1.22-.295 1.613-.866a1.98 1.98 0 0 0-.492-2.734Z" fill="#000" />
  <path d="M81.915 14.085C72.826 4.997 60.787 0 48 0 35.213 0 23.174 4.997 14.085 14.085 4.997 23.174 0 35.213 0 48c0 12.787 4.997 24.826 14.085 33.915C23.174 91.003 35.213 96 48 96c12.787 0 24.826-4.997 33.915-14.085C91.003 72.826 96 60.787 96 48c0-12.787-4.997-24.826-14.085-33.915ZM49.967 92.026V84A1.973 1.973 0 0 0 48 82.033 1.973 1.973 0 0 0 46.033 84v8.026C23.292 91.023 4.977 72.708 3.973 49.967H12A1.973 1.973 0 0 0 13.967 48 1.973 1.973 0 0 0 12 46.033H3.974C4.977 23.292 23.292 4.977 46.033 3.973V12c0 1.082.885 1.967 1.967 1.967A1.973 1.973 0 0 0 49.967 12V3.974c22.741 1.003 41.056 19.318 42.06 42.059H84A1.973 1.973 0 0 0 82.033 48c0 1.082.885 1.967 1.967 1.967h8.026c-1.003 22.741-19.318 41.056-42.059 42.06Z" fill="#000" />
</svg>